<?xml version="1.0" encoding="UTF-8" standalone="no"?>
<!DOCTYPE svg PUBLIC "-//W3C//DTD SVG 1.1//EN" "http://www.w3.org/Graphics/SVG/1.1/DTD/svg11.dtd">
<svg width="100%" height="100%" viewBox="0 0 512 512" version="1.1" xmlns="http://www.w3.org/2000/svg" xmlns:xlink="http://www.w3.org/1999/xlink" xml:space="preserve" xmlns:serif="http://www.serif.com/" style="fill-rule:evenodd;clip-rule:evenodd;stroke-linejoin:round;stroke-miterlimit:2;">
    <g transform="matrix(1,0,0,0.994175,-1,-0.994175)">
        <path d="M513,25.028C513,18.656 510.483,12.544 506.003,8.038C501.523,3.532 495.447,1 489.112,1L24.888,1C18.553,1 12.477,3.532 7.997,8.038C3.517,12.544 1,18.656 1,25.028L1,491.972C1,498.344 3.517,504.456 7.997,508.962C12.477,513.468 18.553,516 24.888,516L489.112,516C495.447,516 501.523,513.468 506.003,508.962C510.483,504.456 513,498.344 513,491.972L513,25.028Z"/>
    </g>
    <g transform="matrix(1.68284,0,0,1.68284,-176.692,-232.608)">
        <path id="path21" d="M255,382.886C255,384.64 253.621,386.084 251.868,386.165C246.256,386.417 241.288,387.157 240.305,388.342C237.906,391.232 239.341,393.237 245.711,395.899C249.835,397.622 250.863,398.825 250.483,401.486L250.483,401.486C249.938,405.312 247.954,405.827 239.88,404.238C229.833,402.26 227.39,398.909 219.053,375.658C215.519,365.804 213.376,361.452 213.328,364.033C213.285,366.302 212.849,368.158 212.36,368.158C211.87,368.158 204.65,361.725 196.316,353.863C187.981,346 179.55,339.163 177.579,338.668C172.247,337.33 169.366,341.219 168.569,350.832C167.73,360.949 165.306,361.61 161.353,352.801C157.646,344.543 157.587,318.273 161.253,308.472C164.152,300.719 161.892,301.538 157.698,309.76C156.043,313.004 153.932,315.658 153.006,315.658C150.581,315.658 152.553,299.065 156.331,287.686L159.392,278.465L156.432,266.686C151.724,247.952 149.713,227.05 150.765,207.781C152.003,185.098 154.184,177.783 159.74,177.681C160.422,177.668 195.601,210.081 198.78,212.037L204.561,215.594L222.03,213.124C231.172,211.832 240.03,211.072 248.878,210.846C250.488,210.811 252.045,211.426 253.196,212.553C254.348,213.679 254.997,215.222 254.997,216.833C255,244.925 255,362.018 255,382.886ZM216.664,321.519C229.438,327.842 244.414,323.421 233.794,316.462C231.122,314.712 229.17,314.533 225.186,315.676C214.863,318.636 204.25,311.339 204.25,301.28C204.25,298.545 203.294,295.767 202.126,295.107C200.958,294.447 197.827,291.208 195.167,287.908C195.167,287.908 193.761,286.163 192.465,284.556C192.205,284.233 191.762,284.125 191.383,284.293C191.004,284.46 190.785,284.86 190.848,285.269C191.035,286.485 191.201,287.565 191.201,287.565C193.182,300.433 204.466,315.481 216.664,321.519ZM164.126,248.657L164.126,248.657C165.733,252.583 167.114,251.59 175.002,240.844L182.022,231.28L173.725,215.344C169.161,206.579 164.881,199.745 164.214,200.158C162.684,201.103 162.605,244.942 164.126,248.657Z" style="fill:rgb(255,233,157);fill-rule:nonzero;"/>
    </g>
    <g transform="matrix(0.978962,0,0,0.698104,-2.27766,-33.5052)">
        <path d="M435.438,456.29C435.438,452.308 433.137,449.081 430.298,449.081L277.141,449.081C274.302,449.081 272,452.308 272,456.29L272,464.791C272,468.772 274.302,472 277.141,472L430.298,472C433.137,472 435.438,468.772 435.438,464.791L435.438,456.29Z" style="fill:rgb(255,233,157);"/>
    </g>
    <g transform="matrix(0.685273,0,0,0.698104,101.606,-57.5052)">
        <path d="M435.438,456.29C435.438,452.308 432.15,449.081 428.094,449.081C400.953,449.081 306.485,449.081 279.344,449.081C275.288,449.081 272,452.308 272,456.29C272,459 272,462.08 272,464.791C272,468.772 275.288,472 279.344,472C306.485,472 400.953,472 428.094,472C432.15,472 435.438,468.772 435.438,464.791C435.438,462.08 435.438,459 435.438,456.29Z" style="fill:rgb(255,233,157);"/>
    </g>
    <g transform="matrix(0.78317,0,0,0.698104,66.9779,-81.5052)">
        <path d="M435.438,456.29C435.438,452.308 432.561,449.081 429.012,449.081C402.86,449.081 304.579,449.081 278.426,449.081C274.877,449.081 272,452.308 272,456.29C272,459 272,462.08 272,464.791C272,468.772 274.877,472 278.426,472C304.579,472 402.86,472 429.012,472C432.561,472 435.438,468.772 435.438,464.791C435.438,462.08 435.438,459 435.438,456.29Z" style="fill:rgb(255,233,157);"/>
    </g>
    <g transform="matrix(0.538429,0,0,0.698104,149.547,-105.505)">
        <path d="M435.438,456.29C435.438,454.378 434.454,452.544 432.701,451.192C430.948,449.84 428.57,449.081 426.091,449.081C397.295,449.081 310.143,449.081 281.347,449.081C278.868,449.081 276.491,449.84 274.738,451.192C272.985,452.544 272,454.378 272,456.29C272,459 272,462.08 272,464.791C272,466.703 272.985,468.537 274.738,469.889C276.491,471.24 278.868,472 281.347,472C310.143,472 397.295,472 426.091,472C428.57,472 430.948,471.24 432.701,469.889C434.454,468.537 435.438,466.703 435.438,464.791C435.438,462.08 435.438,459 435.438,456.29Z" style="fill:rgb(255,233,157);"/>
    </g>
    <g transform="matrix(0.636325,0,0,0.698104,114.92,-129.505)">
        <path d="M435.438,456.29C435.438,452.308 431.897,449.081 427.529,449.081C399.859,449.081 307.58,449.081 279.909,449.081C275.541,449.081 272,452.308 272,456.29C272,459 272,462.08 272,464.791C272,468.772 275.541,472 279.909,472C307.58,472 399.859,472 427.529,472C431.897,472 435.438,468.772 435.438,464.791C435.438,462.08 435.438,459 435.438,456.29Z" style="fill:rgb(255,233,157);"/>
    </g>
    <g transform="matrix(0.24474,0,0,0.698104,253.431,-153.505)">
        <path d="M435.438,456.29C435.438,452.308 426.232,449.081 414.875,449.081C383.483,449.081 323.955,449.081 292.563,449.081C281.207,449.081 272,452.308 272,456.29C272,459 272,462.08 272,464.791C272,468.772 281.207,472 292.563,472C323.955,472 383.483,472 414.875,472C426.232,472 435.438,468.772 435.438,464.791C435.438,462.08 435.438,459 435.438,456.29Z" style="fill:rgb(255,233,157);"/>
    </g>
    <g transform="matrix(0.342637,0,0,0.698104,218.803,-177.505)">
        <path d="M435.438,456.29C435.438,452.308 428.862,449.081 420.75,449.081C389.706,449.081 317.733,449.081 286.688,449.081C278.576,449.081 272,452.308 272,456.29C272,459 272,462.08 272,464.791C272,468.772 278.576,472 286.688,472C317.733,472 389.706,472 420.75,472C428.862,472 435.438,468.772 435.438,464.791C435.438,462.08 435.438,459 435.438,456.29Z" style="fill:rgb(255,233,157);"/>
    </g>
    <g transform="matrix(-0.685273,8.39218e-17,-8.54931e-17,-0.698104,586.394,633.505)">
        <path d="M435.438,456.29C435.438,452.308 432.15,449.081 428.094,449.081C400.953,449.081 306.485,449.081 279.344,449.081C275.288,449.081 272,452.308 272,456.29C272,459 272,462.08 272,464.791C272,468.772 275.288,472 279.344,472C306.485,472 400.953,472 428.094,472C432.15,472 435.438,468.772 435.438,464.791C435.438,462.08 435.438,459 435.438,456.29Z" style="fill:rgb(255,233,157);"/>
    </g>
    <g transform="matrix(-0.78317,9.59106e-17,-8.54931e-17,-0.698104,621.022,657.505)">
        <path d="M435.438,456.29C435.438,452.308 432.561,449.081 429.012,449.081C402.86,449.081 304.579,449.081 278.426,449.081C274.877,449.081 272,452.308 272,456.29C272,459 272,462.08 272,464.791C272,468.772 274.877,472 278.426,472C304.579,472 402.86,472 429.012,472C432.561,472 435.438,468.772 435.438,464.791C435.438,462.08 435.438,459 435.438,456.29Z" style="fill:rgb(255,233,157);"/>
    </g>
    <g transform="matrix(-0.538429,6.59385e-17,-8.54931e-17,-0.698104,538.453,681.505)">
        <path d="M435.438,456.29C435.438,454.378 434.454,452.544 432.701,451.192C430.948,449.84 428.57,449.081 426.091,449.081C397.295,449.081 310.143,449.081 281.347,449.081C278.868,449.081 276.491,449.84 274.738,451.192C272.985,452.544 272,454.378 272,456.29C272,459 272,462.08 272,464.791C272,466.703 272.985,468.537 274.738,469.889C276.491,471.24 278.868,472 281.347,472C310.143,472 397.295,472 426.091,472C428.57,472 430.948,471.24 432.701,469.889C434.454,468.537 435.438,466.703 435.438,464.791C435.438,462.08 435.438,459 435.438,456.29Z" style="fill:rgb(255,233,157);"/>
    </g>
    <g transform="matrix(-0.636325,7.79274e-17,-8.54931e-17,-0.698104,573.08,705.505)">
        <path d="M435.438,456.29C435.438,452.308 431.897,449.081 427.529,449.081C399.859,449.081 307.58,449.081 279.909,449.081C275.541,449.081 272,452.308 272,456.29C272,459 272,462.08 272,464.791C272,468.772 275.541,472 279.909,472C307.58,472 399.859,472 427.529,472C431.897,472 435.438,468.772 435.438,464.791C435.438,462.08 435.438,459 435.438,456.29Z" style="fill:rgb(255,233,157);"/>
    </g>
    <g transform="matrix(-0.24474,2.99721e-17,-8.54931e-17,-0.698104,434.569,729.505)">
        <path d="M435.438,456.29C435.438,452.308 426.232,449.081 414.875,449.081C383.483,449.081 323.955,449.081 292.563,449.081C281.207,449.081 272,452.308 272,456.29C272,459 272,462.08 272,464.791C272,468.772 281.207,472 292.563,472C323.955,472 383.483,472 414.875,472C426.232,472 435.438,468.772 435.438,464.791C435.438,462.08 435.438,459 435.438,456.29Z" style="fill:rgb(255,233,157);"/>
    </g>
    <g transform="matrix(-0.342637,4.19609e-17,-8.54931e-17,-0.698104,469.197,753.505)">
        <path d="M435.438,456.29C435.438,452.308 428.862,449.081 420.75,449.081C389.706,449.081 317.733,449.081 286.688,449.081C278.576,449.081 272,452.308 272,456.29C272,459 272,462.08 272,464.791C272,468.772 278.576,472 286.688,472C317.733,472 389.706,472 420.75,472C428.862,472 435.438,468.772 435.438,464.791C435.438,462.08 435.438,459 435.438,456.29Z" style="fill:rgb(255,233,157);"/>
    </g>
</svg>
